<?xml version="1.0" encoding="UTF-8" standalone="no"?>
<svg
   enable-background="new 0 0 256 256"
   height="503.9975"
   viewBox="0 0 603.26117 251.99875"
   width="1206.5223"
   version="1.1"
   id="svg36"
   sodipodi:docname="logo.svg"
   inkscape:version="1.3 (0e150ed, 2023-07-21)"
   xmlns:inkscape="http://www.inkscape.org/namespaces/inkscape"
   xmlns:sodipodi="http://sodipodi.sourceforge.net/DTD/sodipodi-0.dtd"
   xmlns="http://www.w3.org/2000/svg"
   xmlns:svg="http://www.w3.org/2000/svg">
  <defs
     id="defs36" />
  <sodipodi:namedview
     id="namedview36"
     pagecolor="#ffffff"
     bordercolor="#000000"
     borderopacity="0.25"
     inkscape:showpageshadow="2"
     inkscape:pageopacity="0.0"
     inkscape:pagecheckerboard="0"
     inkscape:deskcolor="#d1d1d1"
     inkscape:zoom="0.4609375"
     inkscape:cx="606.37288"
     inkscape:cy="251.66102"
     inkscape:window-width="1512"
     inkscape:window-height="917"
     inkscape:window-x="0"
     inkscape:window-y="65"
     inkscape:window-maximized="0"
     inkscape:current-layer="svg36" />
  <g
     id="Layer_1"
     transform="translate(349.72574,-2.000875)">
    <g
       id="g36">
      <g
         id="g11">
        <g
           id="g10">
          <g
             id="g1">
            <path
               d="m 165.742,94.825 v 16.289 H 152.126 V 94.825 c 0,-13.299 -10.825,-24.124 -24.124,-24.124 -13.299,0 -24.124,10.825 -24.124,24.124 v 16.289 H 90.262 V 94.825 c 0,-20.845 16.896,-37.74 37.74,-37.74 20.844,0 37.74,16.896 37.74,37.74 z"
               fill="#efefef"
               id="path1" />
          </g>
          <g
             id="g2">
            <path
               d="M 173.773,111.116 H 82.23 c -4.409,0 -7.983,3.574 -7.983,7.983 v 64.495 c 0,4.409 3.574,7.983 7.983,7.983 h 91.543 c 4.409,0 7.983,-3.574 7.983,-7.983 V 119.1 c 0,-4.41 -3.574,-7.984 -7.983,-7.984 z"
               fill="#f0c020"
               id="path2" />
          </g>
          <g
             id="g3">
            <path
               d="m 171.002,183.498 h -2.667 c -1.381,0 -2.5,-1.119 -2.5,-2.5 0,-1.381 1.119,-2.5 2.5,-2.5 h 2.667 c 1.381,0 2.5,1.119 2.5,2.5 0,1.381 -1.119,2.5 -2.5,2.5 z m -12.667,0 H 84.168 c -1.381,0 -2.5,-1.119 -2.5,-2.5 v -55.833 c 0,-1.381 1.119,-2.5 2.5,-2.5 1.381,0 2.5,1.119 2.5,2.5 v 53.333 h 71.667 c 1.381,0 2.5,1.119 2.5,2.5 0,1.381 -1.119,2.5 -2.5,2.5 z"
               fill="#f9e5af"
               id="path3" />
          </g>
          <g
             id="g4">
            <path
               d="m 138.118,142.117 c 0,-5.587 -4.529,-10.116 -10.116,-10.116 -5.587,0 -10.116,4.529 -10.116,10.116 0,3.044 1.35,5.766 3.477,7.62 v 14.318 c 0,3.667 2.972,6.638 6.638,6.638 3.666,0 6.638,-2.972 6.638,-6.638 v -14.318 c 2.128,-1.854 3.479,-4.577 3.479,-7.62 z"
               fill="#4c4945"
               id="path4" />
          </g>
          <g
             id="g9">
            <circle
               cx="104.902"
               cy="191.578"
               r="2.5"
               id="circle4" />
            <path
               d="m 181.762,132.508 c -1.38,0 -2.51,1.12 -2.51,2.5 0,1.38 1.13,2.5 2.51,2.5 1.37,0 2.49,-1.12 2.49,-2.5 0,-1.38 -1.12,-2.5 -2.49,-2.5 z"
               id="path5" />
            <path
               d="m 112.402,191.578 c 0,1.38 1.12,2.5 2.5,2.5 h 58.87 c 5.78,0 10.48,-4.7 10.48,-10.48 v -38.59 c 0,-1.38 -1.12,-2.5 -2.49,-2.5 -1.38,0 -2.51,1.12 -2.51,2.5 v 38.59 c 0,3.01 -2.46,5.47 -5.48,5.48 h -58.87 c -1.38,0 -2.5,1.12 -2.5,2.5 z"
               id="path6" />
            <path
               d="m 94.902,189.078 h -12.67 c -3.02,-0.011 -5.48,-2.471 -5.48,-5.48 v -64.5 c 0,-3.02 2.46,-5.479 5.48,-5.479 h 91.54 c 3.02,0 5.48,2.46 5.48,5.479 v 5.91 c 0,1.38 1.13,2.5 2.51,2.5 1.37,0 2.49,-1.12 2.49,-2.5 v -5.91 c 0,-5.78 -4.7,-10.479 -10.48,-10.479 h -5.53 v -13.79 c 0,-22.197 -17.949,-40.24 -40.24,-40.24 -12.15,0 -23.52,5.4 -31.19,14.81 -0.864,1.045 -0.733,2.646 0.35,3.521 1.04,0.84 2.68,0.67 3.52,-0.36 6.73,-8.24 16.69,-12.97 27.32,-12.97 19.554,0 35.24,15.836 35.24,35.24 v 13.79 h -8.62 V 94.83 c 0,-14.681 -11.94,-26.62 -26.62,-26.63 -14.67,0.01 -26.62,11.949 -26.62,26.63 v 13.79 h -8.62 V 94.83 c 0,-1.82 0.14,-3.641 0.41,-5.41 0.21,-1.36 -0.73,-2.641 -2.09,-2.851 -1.37,-0.22 -2.64,0.73 -2.85,2.08 -0.31,2.03 -0.47,4.11 -0.47,6.181 v 13.79 h -5.53 c -5.78,0 -10.48,4.699 -10.48,10.479 v 64.5 c 0,5.78 4.7,10.48 10.48,10.48 h 12.67 c 1.38,0 2.5,-1.12 2.5,-2.5 0,-1.38 -1.12,-2.501 -2.5,-2.501 z m 11.48,-94.25 c 0.02,-11.91 9.72,-21.61 21.62,-21.63 11.9,0.02 21.6,9.72 21.62,21.63 v 13.79 h -43.24 z"
               id="path7" />
            <path
               d="m 128.002,173.193 c 5.039,0 9.138,-4.1 9.138,-9.139 V 150.8 c 2.223,-2.337 3.478,-5.441 3.478,-8.684 0,-6.957 -5.659,-12.616 -12.616,-12.616 -6.957,0 -12.616,5.659 -12.616,12.616 0,3.242 1.255,6.347 3.478,8.684 v 13.254 c 0,5.04 4.099,9.139 9.138,9.139 z m 0,-38.692 c 4.199,0 7.616,3.417 7.616,7.616 0,2.193 -0.955,4.284 -2.621,5.735 -0.544,0.476 -0.857,1.162 -0.857,1.885 v 14.317 c 0,2.282 -1.856,4.139 -4.138,4.139 -2.282,0 -4.138,-1.856 -4.138,-4.139 v -14.317 c 0,-0.723 -0.313,-1.409 -0.857,-1.885 -1.666,-1.451 -2.621,-3.542 -2.621,-5.735 0,-4.199 3.417,-7.616 7.616,-7.616 z"
               id="path8" />
            <path
               d="m 91.232,78.448 v 0.02 c -0.565,1.255 0.016,2.72 1.26,3.28 1.241,0.562 2.728,0.016 3.31,-1.26 0.565,-1.278 -0.016,-2.744 -1.27,-3.301 -1.23,-0.549 -2.76,0.04 -3.3,1.261 z"
               id="path9" />
          </g>
        </g>
      </g>
      <g
         id="g35">
        <g
           id="g24">
          <g
             id="g12">
            <path
               d="m 128.002,4.498 5.603,9.027 10.417,2.613 -6.954,8.045 0.835,10.788 -9.901,-4.201 -9.901,4.201 0.835,-10.788 -6.955,-8.045 10.418,-2.613 z"
               fill="#f0c020"
               id="path11" />
          </g>
          <g
             id="g13">
            <path
               d="m 128.002,221.025 5.603,9.027 10.417,2.613 -6.954,8.045 0.835,10.788 -9.901,-4.201 -9.901,4.201 0.835,-10.788 -6.955,-8.045 10.418,-2.613 z"
               fill="#f0c020"
               id="path12" />
          </g>
          <g
             id="g14">
            <path
               d="m 181.784,19.58 5.604,9.026 10.417,2.613 -6.955,8.045 0.836,10.788 -9.902,-4.201 -9.901,4.201 0.835,-10.788 -6.954,-8.045 10.417,-2.613 z"
               fill="#f0c020"
               id="path13" />
          </g>
          <g
             id="g15">
            <path
               d="m 223.603,60.472 5.604,9.027 10.417,2.613 -6.955,8.045 0.836,10.788 -9.902,-4.201 -9.901,4.201 0.835,-10.788 -6.954,-8.045 L 218,69.499 Z"
               fill="#f0c020"
               id="path14" />
          </g>
          <g
             id="g16">
            <path
               d="m 235.014,114.929 5.603,9.027 10.417,2.613 -6.954,8.045 0.835,10.788 -9.901,-4.201 -9.901,4.201 0.835,-10.788 -6.955,-8.045 10.418,-2.613 z"
               fill="#f0c020"
               id="path15" />
          </g>
          <g
             id="g17">
            <path
               d="m 223.351,167.796 5.604,9.026 10.417,2.613 -6.954,8.045 0.835,10.788 -9.902,-4.201 -9.901,4.201 0.835,-10.788 -6.954,-8.045 10.417,-2.613 z"
               fill="#f0c020"
               id="path16" />
          </g>
          <g
             id="g18">
            <path
               d="m 182.459,209.615 5.603,9.026 10.417,2.613 -6.954,8.045 0.835,10.788 -9.901,-4.201 -9.901,4.201 0.835,-10.788 -6.955,-8.045 10.418,-2.613 z"
               fill="#f0c020"
               id="path17" />
          </g>
          <g
             id="g19">
            <path
               d="m 74.219,19.58 -5.603,9.026 -10.417,2.613 6.954,8.045 -0.835,10.788 9.901,-4.201 9.901,4.201 -0.835,-10.788 6.955,-8.045 -10.418,-2.613 z"
               fill="#f0c020"
               id="path18" />
          </g>
          <g
             id="g20">
            <path
               d="m 32.4,60.472 -5.603,9.027 -10.417,2.613 6.954,8.045 -0.835,10.788 9.901,-4.201 9.901,4.201 -0.835,-10.788 6.955,-8.045 -10.418,-2.613 z"
               fill="#f0c020"
               id="path19" />
          </g>
          <g
             id="g21">
            <path
               d="m 20.99,114.929 -5.603,9.027 -10.418,2.613 6.955,8.045 -0.835,10.788 9.901,-4.201 9.901,4.201 -0.835,-10.788 6.954,-8.045 -10.417,-2.613 z"
               fill="#f0c020"
               id="path20" />
          </g>
          <g
             id="g22">
            <path
               d="m 32.652,167.796 -5.603,9.026 -10.417,2.613 6.954,8.045 -0.835,10.788 9.901,-4.201 9.901,4.201 -0.835,-10.788 6.955,-8.045 -10.418,-2.613 z"
               fill="#f0c020"
               id="path21" />
          </g>
          <g
             id="g23">
            <path
               d="m 73.545,209.615 -5.603,9.026 -10.418,2.613 6.955,8.045 -0.835,10.788 9.901,-4.201 9.901,4.201 -0.835,-10.788 6.954,-8.045 -10.417,-2.613 z"
               fill="#f0c020"
               id="path22" />
          </g>
        </g>
        <path
           d="m 110.092,17.768 6.27,7.26 -0.75,9.75 c -0.153,1.933 1.818,3.211 3.47,2.49 l 8.92,-3.78 8.93,3.78 c 1.67,0.718 3.613,-0.576 3.46,-2.49 l -0.75,-9.75 6.27,-7.26 c 1.216,-1.408 0.525,-3.594 -1.28,-4.06 l -9.44,-2.36 -5.07,-8.17 c -0.967,-1.57 -3.273,-1.569 -4.24,0 l -5.07,8.17 -9.44,2.36 c -1.803,0.466 -2.498,2.65 -1.28,4.06 z m 12.91,-1.82 c 0.64,-0.16 1.18,-0.55 1.52,-1.11 l 3.48,-5.6 3.48,5.6 c 0.34,0.56 0.88,0.95 1.51,1.11 l 6.48,1.63 -4.3,4.97 c -0.44,0.51 -0.65,1.16 -0.6,1.83 l 0.52,6.68 -6.11,-2.59 c -0.63,-0.26 -1.34,-0.26 -1.96,0 l -6.11,2.59 0.52,-6.68 c 0.05,-0.67 -0.16,-1.32 -0.61,-1.83 l -4.29,-4.97 z"
           id="path24" />
        <path
           d="m 144.632,230.238 -9.44,-2.36 -5.07,-8.17 c -0.966,-1.568 -3.271,-1.573 -4.24,0 l -5.07,8.16 -9.44,2.37 c -1.817,0.471 -2.49,2.658 -1.28,4.06 l 6.27,7.26 -0.75,9.75 c -0.148,1.845 1.715,3.226 3.47,2.49 l 8.92,-3.79 8.93,3.79 c 1.744,0.73 3.61,-0.635 3.46,-2.49 l -0.75,-9.75 6.27,-7.26 c 1.231,-1.426 0.498,-3.621 -1.28,-4.06 z m -9.46,8.84 c -0.43,0.5 -0.65,1.17 -0.6,1.82 l 0.52,6.69 -6.11,-2.59 c -0.593,-0.268 -1.367,-0.268 -1.96,0 l -6.11,2.59 0.52,-6.69 c 0.05,-0.66 -0.17,-1.32 -0.61,-1.82 l -4.29,-4.98 6.47,-1.62 c 0.63,-0.16 1.18,-0.56 1.52,-1.11 l 3.48,-5.6 3.48,5.6 c 0.34,0.56 0.88,0.95 1.51,1.11 l 6.48,1.62 z"
           id="path25" />
        <path
           d="m 165.156,28.794 c -1.802,0.452 -2.5,2.651 -1.283,4.06 l 6.273,7.257 -0.755,9.749 c -0.145,1.871 1.751,3.225 3.469,2.494 l 8.925,-3.787 8.924,3.787 c 1.712,0.727 3.615,-0.615 3.469,-2.494 l -0.755,-9.749 6.273,-7.257 c 1.22,-1.41 0.517,-3.609 -1.283,-4.06 l -9.436,-2.367 -5.069,-8.167 c -0.977,-1.575 -3.272,-1.573 -4.248,0 l -5.07,8.167 z m 13.149,1.131 3.479,-5.605 3.479,5.605 c 0.342,0.552 0.886,0.949 1.516,1.106 l 6.479,1.625 -4.299,4.974 c -0.437,0.504 -0.653,1.163 -0.602,1.828 l 0.518,6.687 -6.114,-2.594 c -0.624,-0.265 -1.329,-0.265 -1.953,0 l -6.115,2.594 0.518,-6.687 c 0.051,-0.665 -0.165,-1.323 -0.601,-1.828 l -4.299,-4.974 6.479,-1.625 c 0.629,-0.158 1.173,-0.555 1.515,-1.106 z"
           id="path26" />
        <path
           d="m 221.482,59.148 -5.07,8.17 -9.44,2.37 c -1.789,0.442 -2.503,2.644 -1.28,4.06 l 6.27,7.26 -0.75,9.74 c -0.144,1.802 1.642,3.242 3.47,2.5 l 8.92,-3.79 8.93,3.79 c 1.696,0.721 3.6,-0.595 3.47,-2.5 l -0.76,-9.74 6.27,-7.26 c 1.242,-1.439 0.497,-3.621 -1.28,-4.06 l -9.44,-2.37 -5.06,-8.17 c -1.005,-1.574 -3.274,-1.564 -4.25,0 z m 5.599,11.67 c 0.34,0.55 0.88,0.95 1.52,1.11 l 6.48,1.62 -4.3,4.97 c -0.44,0.51 -0.66,1.16 -0.6,1.83 l 0.51,6.69 -6.11,-2.59 c -0.568,-0.256 -1.331,-0.279 -1.95,0 l -6.12,2.59 0.52,-6.69 c 0.05,-0.67 -0.16,-1.32 -0.6,-1.83 l -4.3,-4.97 6.48,-1.62 c 0.63,-0.16 1.17,-0.56 1.51,-1.11 l 3.48,-5.6 z"
           id="path27" />
        <path
           d="m 251.641,124.148 -9.43,-2.37 -5.07,-8.17 c -0.997,-1.582 -3.288,-1.559 -4.25,0 l -5.07,8.17 -9.44,2.37 c -1.777,0.444 -2.51,2.614 -1.28,4.06 l 6.27,7.25 -0.75,9.75 c -0.143,1.802 1.659,3.236 3.47,2.5 l 8.92,-3.79 8.93,3.79 c 1.705,0.704 3.599,-0.6 3.47,-2.5 l -0.76,-9.75 6.27,-7.25 c 1.236,-1.452 0.505,-3.619 -1.28,-4.06 z m -9.449,8.83 c -0.44,0.51 -0.66,1.16 -0.6,1.83 l 0.51,6.69 -6.11,-2.6 c -0.626,-0.262 -1.3,-0.272 -1.95,0 l -6.12,2.6 0.52,-6.69 c 0.05,-0.67 -0.16,-1.32 -0.6,-1.83 l -4.3,-4.97 6.48,-1.63 c 0.63,-0.15 1.17,-0.55 1.51,-1.1 l 3.48,-5.61 3.48,5.61 c 0.35,0.55 0.89,0.95 1.52,1.1 l 6.48,1.63 z"
           id="path28" />
        <path
           d="m 239.982,177.008 -9.44,-2.36 -5.07,-8.17 c -0.966,-1.568 -3.271,-1.573 -4.24,0 l -5.07,8.17 -9.44,2.36 c -1.82,0.471 -2.498,2.65 -1.28,4.06 l 6.27,7.26 -0.75,9.75 c -0.156,1.951 1.857,3.214 3.46,2.49 l 8.93,-3.79 8.92,3.79 c 1.701,0.723 3.622,-0.59 3.47,-2.49 l -0.75,-9.75 6.27,-7.26 c 1.211,-1.404 0.534,-3.59 -1.28,-4.06 z m -9.46,8.84 c -0.44,0.5 -0.65,1.15 -0.6,1.83 l 0.52,6.68 -6.11,-2.59 c -0.632,-0.266 -1.323,-0.268 -1.96,0 l -6.11,2.59 0.52,-6.68 c 0.05,-0.68 -0.17,-1.33 -0.61,-1.83 l -4.29,-4.98 6.47,-1.62 c 0.64,-0.16 1.17,-0.55 1.52,-1.11 l 3.48,-5.6 3.48,5.6 c 0.34,0.56 0.88,0.95 1.51,1.11 l 6.48,1.62 z"
           id="path29" />
        <path
           d="m 199.092,218.828 -9.44,-2.37 -5.07,-8.16 c -0.976,-1.584 -3.29,-1.556 -4.25,0 l -5.07,8.16 -9.43,2.37 c -1.8,0.445 -2.507,2.651 -1.29,4.06 l 6.28,7.26 -0.76,9.75 c -0.147,1.821 1.71,3.229 3.47,2.49 l 8.93,-3.79 8.92,3.79 c 1.722,0.733 3.621,-0.622 3.47,-2.49 l -0.76,-9.75 6.28,-7.26 c 1.203,-1.392 0.534,-3.606 -1.28,-4.06 z m -9.46,8.84 c -0.44,0.5 -0.65,1.15 -0.6,1.83 l 0.52,6.68 -6.12,-2.59 c -0.602,-0.272 -1.366,-0.264 -1.95,0 l -6.11,2.59 0.51,-6.68 c 0.06,-0.68 -0.16,-1.33 -0.6,-1.83 l -4.3,-4.98 6.48,-1.62 c 0.63,-0.16 1.17,-0.55 1.52,-1.11 l 3.48,-5.6 3.48,5.6 c 0.34,0.56 0.88,0.95 1.51,1.11 l 6.48,1.62 z"
           id="path30" />
        <path
           d="m 56.312,32.858 6.27,7.25 -0.76,9.75 c -0.148,1.869 1.756,3.218 3.47,2.49 l 8.93,-3.78 8.92,3.79 c 1.804,0.731 3.614,-0.687 3.47,-2.5 l -0.75,-9.75 6.27,-7.25 c 1.196,-1.386 0.546,-3.604 -1.28,-4.06 l -9.44,-2.37 -5.07,-8.17 c -0.959,-1.555 -3.253,-1.582 -4.25,0 l -5.07,8.17 -9.43,2.37 c -1.797,0.443 -2.514,2.635 -1.28,4.06 z m 12.91,-1.83 c 0.64,-0.16 1.17,-0.55 1.52,-1.1 l 3.48,-5.61 3.48,5.61 c 0.33,0.54 0.89,0.94 1.51,1.1 l 6.48,1.63 -4.3,4.97 c -0.44,0.51 -0.65,1.16 -0.6,1.83 l 0.52,6.69 -6.12,-2.6 c -0.62,-0.26 -1.33,-0.26 -1.95,0 l -6.11,2.6 0.51,-6.69 c 0.06,-0.67 -0.16,-1.32 -0.6,-1.83 l -4.3,-4.97 z"
           id="path31" />
        <path
           d="m 15.772,69.688 c -1.779,0.44 -2.52,2.623 -1.28,4.06 l 6.27,7.26 -0.76,9.74 c -0.128,1.877 1.732,3.228 3.47,2.5 l 8.93,-3.79 8.92,3.79 c 1.716,0.729 3.619,-0.62 3.47,-2.5 l -0.75,-9.74 6.27,-7.26 c 1.229,-1.424 0.5,-3.615 -1.28,-4.06 l -9.44,-2.37 -5.07,-8.17 c -0.977,-1.563 -3.244,-1.576 -4.25,0 l -5.07,8.17 z m 13.15,1.13 3.48,-5.61 3.48,5.61 c 0.34,0.55 0.89,0.95 1.51,1.11 l 6.48,1.62 -4.3,4.97 c -0.44,0.51 -0.65,1.16 -0.6,1.83 l 0.52,6.69 -6.12,-2.59 c -0.62,-0.27 -1.33,-0.27 -1.95,0 l -6.11,2.59 0.52,-6.69 c 0.05,-0.67 -0.17,-1.32 -0.61,-1.83 l -4.3,-4.97 6.48,-1.62 c 0.64,-0.16 1.17,-0.55 1.52,-1.11 z"
           id="path32" />
        <path
           d="m 4.362,124.148 c -1.812,0.448 -2.508,2.662 -1.28,4.06 l 6.27,7.25 -0.75,9.75 c -0.148,1.865 1.729,3.225 3.46,2.5 l 8.93,-3.79 8.92,3.79 c 1.721,0.71 3.619,-0.621 3.47,-2.5 l -0.75,-9.75 6.27,-7.25 c 1.196,-1.386 0.546,-3.604 -1.28,-4.06 l -9.44,-2.37 -5.07,-8.17 c -0.979,-1.587 -3.292,-1.553 -4.25,0 l -5.07,8.17 z m 13.15,1.13 3.48,-5.61 3.48,5.61 c 0.34,0.55 0.88,0.94 1.51,1.1 l 6.48,1.63 -4.3,4.97 c -0.44,0.51 -0.65,1.16 -0.6,1.83 l 0.52,6.69 -6.12,-2.6 c -0.62,-0.26 -1.33,-0.26 -1.95,0 l -6.11,2.6 0.51,-6.69 c 0.06,-0.67 -0.16,-1.32 -0.6,-1.83 l -4.3,-4.97 6.48,-1.63 c 0.64,-0.16 1.18,-0.55 1.52,-1.1 z"
           id="path33" />
        <path
           d="m 49.282,177.008 -9.44,-2.36 -5.06,-8.17 c -0.997,-1.582 -3.288,-1.559 -4.25,0 l -5.07,8.17 -9.44,2.36 c -1.817,0.471 -2.49,2.658 -1.28,4.06 l 6.27,7.26 -0.75,9.75 c -0.146,1.819 1.662,3.223 3.47,2.49 l 8.92,-3.79 8.92,3.79 c 1.698,0.721 3.621,-0.586 3.47,-2.49 l -0.75,-9.75 6.27,-7.26 c 1.219,-1.412 0.539,-3.589 -1.28,-4.06 z m -9.451,8.84 c -0.44,0.5 -0.66,1.16 -0.61,1.82 l 0.52,6.69 -6.11,-2.59 c -0.669,-0.273 -1.338,-0.262 -1.96,0 l -6.11,2.59 0.52,-6.69 c 0.05,-0.67 -0.16,-1.32 -0.61,-1.82 l -4.29,-4.98 6.48,-1.62 c 0.63,-0.16 1.17,-0.55 1.51,-1.11 l 3.48,-5.6 3.48,5.6 c 0.34,0.56 0.88,0.95 1.52,1.11 l 6.47,1.62 z"
           id="path34" />
        <path
           d="m 55.632,222.888 6.28,7.26 -0.76,9.75 c -0.149,1.848 1.735,3.228 3.47,2.49 l 8.92,-3.79 8.93,3.79 c 1.756,0.738 3.617,-0.664 3.47,-2.49 l -0.76,-9.75 6.28,-7.26 c 1.219,-1.411 0.507,-3.616 -1.29,-4.06 l -9.44,-2.36 -5.06,-8.17 c -0.999,-1.586 -3.293,-1.553 -4.25,0 l -5.07,8.16 -9.43,2.37 c -1.796,0.444 -2.518,2.638 -1.29,4.06 z m 12.92,-1.82 c 0.63,-0.16 1.17,-0.55 1.51,-1.11 l 3.48,-5.6 3.48,5.6 c 0.34,0.55 0.89,0.95 1.52,1.11 l 6.48,1.62 -4.3,4.98 c -0.44,0.51 -0.66,1.16 -0.6,1.82 l 0.51,6.69 -6.11,-2.59 c -0.62,-0.27 -1.33,-0.27 -1.95,0 l -6.12,2.59 0.52,-6.69 c 0.05,-0.67 -0.16,-1.32 -0.6,-1.82 l -4.3,-4.98 z"
           id="path35" />
      </g>
    </g>
  </g>
  <path
     d="m 172.54356,70.585604 q -1.05297,0 -1.73431,-0.681334 -0.68133,-0.681335 -0.68133,-1.734306 V 24.626496 q 0,-1.052971 0.68133,-1.734306 0.68134,-0.681334 1.73431,-0.681334 h 11.14911 q 5.32679,0 9.7245,1.796245 4.45964,1.734306 7.6805,5.017099 3.22085,3.220854 4.95516,7.618559 1.79624,4.397704 1.79624,9.724501 0,5.326797 -1.79624,9.786441 -1.73431,4.397704 -4.95516,7.680498 -3.22086,3.220854 -7.6805,5.017099 -4.39771,1.734306 -9.7245,1.734306 z m 2.41564,-4.335765 h 8.73347 q 5.69843,0 10.0342,-2.539519 4.3977,-2.601459 6.87528,-7.061103 2.47758,-4.521583 2.47758,-10.281957 0,-5.760373 -2.47758,-10.220017 -2.47758,-4.521584 -6.87528,-7.061103 -4.33577,-2.53952 -10.0342,-2.53952 h -8.73347 z m 56.44421,4.645463 q -4.76934,0 -8.54765,-2.229822 -3.77831,-2.291762 -6.00813,-6.19395 -2.16789,-3.902189 -2.16789,-8.795409 0,-4.95516 2.22983,-8.857348 2.29176,-3.902189 6.19395,-6.132011 3.90219,-2.291761 8.79541,-2.291761 4.89322,0 8.73346,2.291761 3.90219,2.229822 6.13202,6.132011 2.29176,3.902188 2.3537,8.857348 l -1.92013,1.486548 q 0,4.459644 -2.10594,8.052135 -2.044,3.530551 -5.6365,5.636494 -3.53055,2.044004 -8.05213,2.044004 z m 0.49552,-4.335765 q 3.59249,0 6.37976,-1.672367 2.84922,-1.672366 4.45965,-4.583523 1.67236,-2.973096 1.67236,-6.627526 0,-3.71637 -1.67236,-6.627526 -1.61043,-2.911157 -4.45965,-4.583523 -2.78727,-1.734306 -6.37976,-1.734306 -3.53056,0 -6.37977,1.734306 -2.84922,1.672366 -4.52159,4.583523 -1.67236,2.911156 -1.67236,6.627526 0,3.65443 1.67236,6.627526 1.67237,2.911157 4.52159,4.583523 2.84921,1.672367 6.37977,1.672367 z m 14.80354,4.026067 q -1.05298,0 -1.73431,-0.619395 -0.68133,-0.681334 -0.68133,-1.734306 V 57.640249 l 1.17685,-4.89322 3.65443,0.929092 v 14.555782 q 0,1.052972 -0.68134,1.734306 -0.68133,0.619395 -1.7343,0.619395 z m 24.23564,0 q -3.28279,0 -5.88425,-1.548487 -2.53952,-1.548488 -4.02607,-4.211886 -1.48655,-2.725338 -1.48655,-6.19395 V 28.342866 q 0,-1.052972 0.6194,-1.734306 0.68133,-0.681335 1.73431,-0.681335 1.05297,0 1.7343,0.681335 0.68134,0.681334 0.68134,1.734306 v 30.288415 q 0,3.158914 1.85818,5.202918 1.85819,1.982064 4.76934,1.982064 h 1.67237 q 0.99103,0 1.61043,0.681334 0.61939,0.681335 0.61939,1.734306 0,1.052972 -0.74327,1.734306 -0.74328,0.619395 -1.85819,0.619395 z M 255.51518,42.093435 q -0.9291,0 -1.54849,-0.557456 -0.6194,-0.619395 -0.6194,-1.486548 0,-0.929092 0.6194,-1.486548 0.61939,-0.619395 1.54849,-0.619395 h 15.79457 q 0.92909,0 1.54849,0.619395 0.61939,0.557456 0.61939,1.486548 0,0.867153 -0.61939,1.486548 -0.6194,0.557456 -1.54849,0.557456 z m 41.26903,28.801867 q -4.76934,0 -8.54765,-2.229822 -3.77831,-2.291762 -6.00813,-6.19395 -2.16789,-3.902189 -2.16789,-8.795409 0,-4.95516 2.22982,-8.857348 2.29177,-3.902189 6.19395,-6.132011 3.90219,-2.291761 8.79541,-2.291761 4.89322,0 8.73347,2.291761 3.90219,2.229822 6.13201,6.132011 2.29176,3.902188 2.3537,8.857348 l -1.92012,1.486548 q 0,4.459644 -2.10594,8.052135 -2.04401,3.530551 -5.6365,5.636494 -3.53055,2.044004 -8.05213,2.044004 z m 0.49551,-4.335765 q 3.59249,0 6.37977,-1.672367 2.84922,-1.672366 4.45965,-4.583523 1.67236,-2.973096 1.67236,-6.627526 0,-3.71637 -1.67236,-6.627526 -1.61043,-2.911157 -4.45965,-4.583523 -2.78728,-1.734306 -6.37977,-1.734306 -3.53055,0 -6.37976,1.734306 -2.84922,1.672366 -4.52159,4.583523 -1.67236,2.911156 -1.67236,6.627526 0,3.65443 1.67236,6.627526 1.67237,2.911157 4.52159,4.583523 2.84921,1.672367 6.37976,1.672367 z m 14.80354,4.026067 q -1.05297,0 -1.7343,-0.619395 -0.68134,-0.681334 -0.68134,-1.734306 V 57.640249 l 1.17685,-4.89322 3.65443,0.929092 v 14.555782 q 0,1.052972 -0.68133,1.734306 -0.68133,0.619395 -1.73431,0.619395 z"
     id="path38"
     style="font-size:61.9395px;font-family:Comfortaa;-inkscape-font-specification:Comfortaa;text-align:end;letter-spacing:-0.725858px;text-anchor:end;stroke-width:10.9736;stroke-linecap:round;paint-order:markers stroke fill;fill:#b3b3b3" />
  <path
     d="m 2.41564,148.00997 q -1.05297,0 -1.7343,-0.68133 Q 0,146.6473 0,145.59433 v -43.54346 q 0,-1.05297 0.68134,-1.7343 0.68133,-0.681345 1.7343,-0.681345 h 12.3879 q 4.58353,0 8.11408,2.044015 3.53055,1.98206 5.51261,5.51261 1.98207,3.53055 1.98207,8.17601 0,4.52158 -1.98207,8.05214 -1.98206,3.4686 -5.51261,5.51261 -3.53055,1.98206 -8.11408,1.98206 H 4.83128 v 14.67966 q 0,1.05297 -0.68133,1.73431 -0.68133,0.68133 -1.73431,0.68133 z m 2.41564,-21.74075 h 9.97226 q 3.15892,0 5.6365,-1.36267 2.47758,-1.42461 3.84025,-3.90219 1.42461,-2.47758 1.42461,-5.63649 0,-3.2828 -1.42461,-5.76038 -1.36267,-2.47758 -3.84025,-3.90218 -2.47758,-1.42461 -5.6365,-1.42461 H 4.83128 Z m 33.71248,0.86715 q 0.18582,-3.84025 1.98206,-6.87528 1.85819,-3.03504 4.76935,-4.76934 2.97309,-1.73431 6.56558,-1.73431 2.84922,0 4.39771,0.80521 1.54848,0.80522 1.17685,2.3537 -0.24776,0.9291 -0.86716,1.23879 -0.55745,0.3097 -1.4246,0.24776 -0.80522,-0.0619 -1.85819,-0.12388 -3.46861,-0.30969 -6.19395,0.74328 -2.6634,0.99103 -4.27382,3.09697 -1.54849,2.10595 -1.54849,5.0171 z m 0.37164,20.8736 q -1.11491,0 -1.73431,-0.61939 -0.61939,-0.6194 -0.61939,-1.73431 v -29.17349 q 0,-1.11491 0.61939,-1.73431 0.6194,-0.61939 1.73431,-0.61939 1.11491,0 1.7343,0.61939 0.6194,0.6194 0.6194,1.73431 v 29.17349 q 0,1.11491 -0.6194,1.73431 -0.61939,0.61939 -1.7343,0.61939 z m 38.23392,0.3097 q -4.95516,0 -8.85735,-2.22982 -3.90219,-2.22982 -6.13201,-6.13201 -2.22982,-3.90219 -2.22982,-8.85735 0,-5.01709 2.22982,-8.91928 2.22982,-3.90219 6.13201,-6.13201 3.90219,-2.22982 8.85735,-2.22982 4.95516,0 8.79541,2.22982 3.90219,2.22982 6.13201,6.13201 2.22982,3.90219 2.29176,8.91928 0,4.95516 -2.29176,8.85735 -2.22982,3.90219 -6.13201,6.13201 -3.84025,2.22982 -8.79541,2.22982 z m 0,-4.33576 q 3.59249,0 6.44171,-1.67237 2.84921,-1.67237 4.45964,-4.58352 1.61043,-2.91116 1.61043,-6.62753 0,-3.71637 -1.61043,-6.62752 -1.61043,-2.97309 -4.45964,-4.64546 -2.84922,-1.67237 -6.44171,-1.67237 -3.59249,0 -6.44171,1.67237 -2.84921,1.67237 -4.52158,4.64546 -1.61043,2.91115 -1.61043,6.62752 0,3.71637 1.61043,6.62753 1.67237,2.91115 4.52158,4.58352 2.84922,1.67237 6.44171,1.67237 z m 39.03918,4.02606 q -3.28279,0 -5.88425,-1.54848 -2.53952,-1.54849 -4.02607,-4.21189 -1.48654,-2.72534 -1.48654,-6.19395 v -30.28842 q 0,-1.05297 0.61939,-1.7343 0.68133,-0.68134 1.73431,-0.68134 1.05297,0 1.7343,0.68134 0.68134,0.68133 0.68134,1.7343 v 30.28842 q 0,3.15891 1.85818,5.20292 1.85819,1.98206 4.76934,1.98206 h 1.67237 q 0.99103,0 1.61043,0.68134 0.61939,0.68133 0.61939,1.7343 0,1.05297 -0.74327,1.73431 -0.74328,0.61939 -1.85819,0.61939 z m -15.42293,-28.49216 q -0.92909,0 -1.54849,-0.55745 -0.61939,-0.6194 -0.61939,-1.48655 0,-0.92909 0.61939,-1.48655 0.6194,-0.61939 1.54849,-0.61939 h 15.79457 q 0.92909,0 1.54849,0.61939 0.61939,0.55746 0.61939,1.48655 0,0.86715 -0.61939,1.48655 -0.6194,0.55745 -1.54849,0.55745 z m 41.7026,28.80186 q -5.01709,0 -8.91928,-2.16788 -3.84025,-2.22982 -6.07007,-6.13201 -2.16789,-3.90219 -2.16789,-8.91929 0,-5.07903 2.04401,-8.91928 2.10594,-3.90219 5.76037,-6.13201 3.65443,-2.22982 8.42377,-2.22982 4.7074,0 8.17602,2.16788 3.53055,2.10594 5.45067,5.88425 1.92013,3.77831 1.92013,8.60958 0,0.99104 -0.6194,1.61043 -0.61939,0.55746 -1.61043,0.55746 h -26.32428 v -3.96413 h 26.8198 l -2.6634,1.92012 q 0.0619,-3.59249 -1.30073,-6.4417 -1.36267,-2.84922 -3.90219,-4.45965 -2.47758,-1.61043 -5.94619,-1.61043 -3.53055,0 -6.19395,1.67237 -2.6634,1.67237 -4.14994,4.64546 -1.42461,2.91117 -1.42461,6.68947 0,3.77831 1.61042,6.68947 1.67237,2.91115 4.52159,4.58352 2.84921,1.67236 6.56558,1.67236 2.22983,0 4.45965,-0.74327 2.29176,-0.80521 3.65443,-1.98206 0.68133,-0.55746 1.54849,-0.55746 0.86715,-0.0619 1.48654,0.43358 0.80522,0.74327 0.80522,1.61042 0.0619,0.86716 -0.68134,1.48655 -2.044,1.73431 -5.20291,2.91116 -3.15892,1.11491 -6.07008,1.11491 z m 35.81833,0 q -4.89323,0 -8.73347,-2.22982 -3.77831,-2.29176 -6.00814,-6.19395 -2.16788,-3.90219 -2.16788,-8.79541 0,-4.95515 2.10594,-8.85734 2.10595,-3.90219 5.76038,-6.13201 3.65443,-2.29176 8.42377,-2.29176 3.77831,0 6.93722,1.48655 3.22086,1.48655 5.6365,4.45964 0.68133,0.74328 0.49551,1.61043 -0.18581,0.80521 -1.05297,1.42461 -0.68133,0.49551 -1.54848,0.37163 -0.80522,-0.18581 -1.42461,-0.92909 -3.59249,-4.08801 -9.04317,-4.08801 -3.46861,0 -6.13201,1.67237 -2.60146,1.67237 -4.08801,4.58352 -1.42461,2.91116 -1.42461,6.68946 0,3.71637 1.54849,6.62753 1.54849,2.91115 4.33577,4.58352 2.78727,1.67237 6.37977,1.67237 2.41564,0 4.3977,-0.6194 2.044,-0.68133 3.59249,-2.044 0.74327,-0.6194 1.54849,-0.68134 0.80521,-0.0619 1.48655,0.49552 0.74327,0.68133 0.80521,1.54849 0.12388,0.86715 -0.55746,1.48654 -4.52158,4.14995 -11.27298,4.14995 z m 34.26991,-0.3097 q -3.2828,0 -5.88425,-1.54848 -2.53952,-1.54849 -4.02607,-4.21189 -1.48655,-2.72534 -1.48655,-6.19395 v -30.28842 q 0,-1.05297 0.61939,-1.7343 0.68134,-0.68134 1.73431,-0.68134 1.05297,0 1.73431,0.68134 0.68133,0.68133 0.68133,1.7343 v 30.28842 q 0,3.15891 1.85819,5.20292 1.85818,1.98206 4.76934,1.98206 h 1.67236 q 0.99104,0 1.61043,0.68134 0.6194,0.68133 0.6194,1.7343 0,1.05297 -0.74328,1.73431 -0.74327,0.61939 -1.85818,0.61939 z m -15.42294,-28.49216 q -0.92909,0 -1.54849,-0.55745 -0.61939,-0.6194 -0.61939,-1.48655 0,-0.92909 0.61939,-1.48655 0.6194,-0.61939 1.54849,-0.61939 h 15.79457 q 0.9291,0 1.54849,0.61939 0.6194,0.55746 0.6194,1.48655 0,0.86715 -0.6194,1.48655 -0.61939,0.55745 -1.54849,0.55745 z m 29.74829,28.49216 q -1.11491,0 -1.79624,-0.61939 -0.6194,-0.68134 -0.6194,-1.79625 v -29.04961 q 0,-1.11491 0.6194,-1.73431 0.68133,-0.68133 1.79624,-0.68133 1.05298,0 1.67237,0.68133 0.68133,0.6194 0.68133,1.73431 v 29.04961 q 0,1.11491 -0.68133,1.79625 -0.61939,0.61939 -1.67237,0.61939 z m -0.0619,-40.3226 q -1.36266,0 -2.3537,-0.99103 -0.99103,-0.99103 -0.99103,-2.41564 0,-1.54849 0.99103,-2.41564 1.05297,-0.9291 2.41564,-0.9291 1.30073,0 2.29177,0.9291 1.05297,0.86715 1.05297,2.41564 0,1.42461 -0.99104,2.41564 -0.99103,0.99103 -2.41564,0.99103 z m 29.25283,40.6323 q -4.95516,0 -8.85735,-2.22982 -3.90219,-2.22982 -6.13201,-6.13201 -2.22982,-3.90219 -2.22982,-8.85735 0,-5.01709 2.22982,-8.91928 2.22982,-3.90219 6.13201,-6.13201 3.90219,-2.22982 8.85735,-2.22982 4.95516,0 8.79541,2.22982 3.90219,2.22982 6.13201,6.13201 2.22982,3.90219 2.29176,8.91928 0,4.95516 -2.29176,8.85735 -2.22982,3.90219 -6.13201,6.13201 -3.84025,2.22982 -8.79541,2.22982 z m 0,-4.33576 q 3.59249,0 6.44171,-1.67237 2.84921,-1.67237 4.45964,-4.58352 1.61043,-2.91116 1.61043,-6.62753 0,-3.71637 -1.61043,-6.62752 -1.61043,-2.97309 -4.45964,-4.64546 -2.84922,-1.67237 -6.44171,-1.67237 -3.59249,0 -6.44171,1.67237 -2.84922,1.67237 -4.52158,4.64546 -1.61043,2.91115 -1.61043,6.62752 0,3.71637 1.61043,6.62753 1.67236,2.91115 4.52158,4.58352 2.84922,1.67237 6.44171,1.67237 z m 54.83375,4.02606 q -1.05297,0 -1.73431,-0.68133 -0.68133,-0.68134 -0.68133,-1.67237 V 129.552 q 0,-3.84024 -1.48655,-6.31782 -1.42461,-2.47758 -3.96413,-3.71637 -2.47758,-1.23879 -5.63649,-1.23879 -3.03504,0 -5.51262,1.17685 -2.41564,1.17685 -3.84025,3.22086 -1.4246,2.044 -1.4246,4.64546 h -3.40668 q 0.12388,-3.90219 2.10595,-6.93722 1.98206,-3.09698 5.26485,-4.83128 3.2828,-1.79625 7.30887,-1.79625 4.3977,0 7.86631,1.85818 3.46861,1.79625 5.45068,5.3268 2.044,3.53055 2.044,8.60959 v 16.10427 q 0,0.99103 -0.68133,1.67237 -0.68134,0.68133 -1.67237,0.68132 z m -26.63398,0 q -1.11492,0 -1.79625,-0.61939 -0.61939,-0.68134 -0.61939,-1.73431 v -29.11155 q 0,-1.11491 0.61939,-1.73431 0.68133,-0.68133 1.79625,-0.68133 1.05297,0 1.67236,0.68133 0.68134,0.6194 0.68134,1.73431 v 29.11155 q 0,1.05297 -0.68134,1.73431 -0.61939,0.61939 -1.67236,0.61939 z"
     id="path39"
     style="font-size:61.9395px;font-family:Comfortaa;-inkscape-font-specification:Comfortaa;text-align:end;letter-spacing:-0.725858px;text-anchor:end;stroke-width:10.9736;stroke-linecap:round;paint-order:markers stroke fill;fill:#666666" />
  <path
     d="m 140.58283,226.05374 q -5.0171,0 -9.4148,-1.92012 -4.33577,-1.92013 -7.6805,-5.3268 -3.28279,-3.46861 -5.14098,-7.92826 -1.85818,-4.52158 -1.85818,-9.66256 0,-5.07904 1.79624,-9.53868 1.85819,-4.52158 5.14098,-7.92826 3.34473,-3.40667 7.6805,-5.32678 4.3977,-1.98207 9.47674,-1.98207 4.45964,0 8.11408,1.30072 3.65443,1.30073 7.0611,4.14995 0.55745,0.43358 0.61939,1.05297 0.12388,0.55746 -0.12388,1.11491 -0.24775,0.49552 -0.74327,0.74328 -0.12388,0.49551 -0.61939,0.74327 -0.49552,0.24776 -1.17686,0.18582 -0.61939,-0.0619 -1.23879,-0.55746 -2.41564,-2.10594 -5.26485,-3.09697 -2.84922,-1.05296 -6.62753,-1.05296 -4.02607,0 -7.55662,1.61042 -3.46861,1.61043 -6.13201,4.3977 -2.6634,2.78728 -4.21188,6.44171 -1.48655,3.65443 -1.48655,7.74244 0,4.21189 1.48655,7.86632 1.54848,3.65443 4.21188,6.44171 2.6634,2.78727 6.13201,4.39769 3.53055,1.54849 7.55662,1.54849 3.40667,0 6.44171,-1.11491 3.03503,-1.11491 5.76037,-3.22086 0.74328,-0.61939 1.54849,-0.49551 0.86715,0.12389 1.48655,0.74327 0.61939,0.61941 0.61939,1.61043 0,0.49551 -0.18582,0.92909 -0.12387,0.37165 -0.49551,0.80521 -3.15892,2.91116 -7.0611,4.14995 -3.90219,1.17685 -8.11408,1.17685 z m 37.4288,-0.3097 q -4.95516,0 -8.85735,-2.22982 -3.90219,-2.22981 -6.13201,-6.13201 -2.22982,-3.90219 -2.22982,-8.85735 0,-5.0171 2.22982,-8.91927 2.22982,-3.90219 6.13201,-6.13202 3.90219,-2.22982 8.85735,-2.22982 4.95516,0 8.79541,2.22982 3.90218,2.22982 6.13201,6.13202 2.22982,3.90217 2.29176,8.91928 0,4.95516 -2.29176,8.85735 -2.22983,3.90219 -6.13201,6.13201 -3.84025,2.22982 -8.79541,2.22981 z m 0,-4.33576 q 3.59249,0 6.44171,-1.67237 2.84921,-1.67236 4.45964,-4.58351 1.61043,-2.91116 1.61043,-6.62754 0,-3.71637 -1.61043,-6.62752 -1.61043,-2.97309 -4.45964,-4.64547 -2.84922,-1.67235 -6.44171,-1.67235 -3.59249,0 -6.44171,1.67235 -2.84922,1.67238 -4.52158,4.64547 -1.61043,2.91115 -1.61043,6.62752 0,3.71638 1.61043,6.62754 1.67236,2.91115 4.52158,4.58351 2.84922,1.67237 6.44171,1.67237 z m 40.71155,4.33576 q -4.76934,0 -8.54765,-2.22982 -3.77831,-2.29176 -6.00813,-6.19395 -2.16788,-3.90218 -2.16788,-8.79541 0,-4.95516 2.22982,-8.85735 2.29176,-3.90217 6.19395,-6.13201 3.90219,-2.29176 8.79541,-2.29176 4.89322,0 8.73347,2.29176 3.90218,2.22983 6.13201,6.13201 2.29176,3.90219 2.3537,8.85735 l -1.92013,1.48655 q 0,4.45965 -2.10594,8.05214 -2.044,3.53056 -5.63649,5.6365 -3.53056,2.044 -8.05214,2.04399 z m 0.49552,-4.33576 q 3.59249,0 6.37977,-1.67237 2.84921,-1.67236 4.45964,-4.58351 1.67237,-2.9731 1.67237,-6.62754 0,-3.71637 -1.67237,-6.62752 -1.61043,-2.91116 -4.45964,-4.58353 -2.78728,-1.73429 -6.37977,-1.73429 -3.53055,0 -6.37977,1.73429 -2.84922,1.67237 -4.52159,4.58353 -1.67236,2.91115 -1.67236,6.62752 0,3.65443 1.67236,6.62754 1.67237,2.91115 4.52159,4.58351 2.84922,1.67237 6.37977,1.67237 z m 14.80354,4.02607 q -1.05297,0 -1.73431,-0.6194 -0.68133,-0.68133 -0.68133,-1.7343 V 212.489 l 1.17685,-4.89323 3.65443,0.92909 v 14.55579 q 0,1.05297 -0.68134,1.7343 -0.68133,0.6194 -1.7343,0.6194 z m 26.09383,0.30969 q -4.89322,0 -8.73347,-2.22982 -3.77831,-2.29176 -6.00813,-6.19395 -2.16788,-3.90218 -2.16788,-8.79541 0,-4.95516 2.10594,-8.85735 2.10594,-3.90217 5.76037,-6.13201 3.65443,-2.29176 8.42377,-2.29176 3.77831,0 6.93723,1.48655 3.22085,1.48655 5.63649,4.45964 0.68134,0.74328 0.49552,1.61043 -0.18582,0.80522 -1.05297,1.42461 -0.68134,0.49552 -1.54849,0.37165 -0.80522,-0.18583 -1.42461,-0.92911 -3.59249,-4.08799 -9.04317,-4.08799 -3.46861,0 -6.13201,1.67235 -2.60146,1.67238 -4.088,4.58353 -1.42461,2.91115 -1.42461,6.68946 0,3.71638 1.54849,6.62754 1.54848,2.91115 4.33576,4.58351 2.78728,1.67237 6.37977,1.67237 2.41564,0 4.3977,-0.6194 2.04401,-0.68133 3.59249,-2.044 0.74328,-0.61939 1.54849,-0.68133 0.80521,-0.0619 1.48655,0.49551 0.74327,0.68134 0.80521,1.54849 0.12388,0.86715 -0.55745,1.48655 -4.52159,4.14994 -11.27299,4.14994 z m 23.43049,-14.1222 q -1.11491,0 -1.79624,-0.68134 -0.6194,-0.68133 -0.6194,-1.7343 v -29.73096 q 0,-1.11491 0.6194,-1.73431 0.68133,-0.68133 1.79624,-0.68133 1.05297,0 1.67237,0.68133 0.68133,0.61941 0.68133,1.73431 v 29.73096 q 0,1.05297 -0.68133,1.7343 -0.6194,0.68134 -1.67237,0.68134 z m 26.63399,13.81251 q -1.05298,0 -1.73431,-0.68134 -0.68134,-0.68133 -0.68134,-1.67236 v -16.10427 q 0,-3.84025 -1.48654,-6.31783 -1.42461,-2.47757 -3.96413,-3.71637 -2.47758,-1.23879 -5.6365,-1.23879 -3.03503,0 -5.51261,1.17685 -2.41564,1.17685 -3.84025,3.22086 -1.42461,2.044 -1.42461,4.64545 h -3.40667 q 0.12388,-3.90217 2.10594,-6.93722 1.98207,-3.09698 5.26486,-4.83128 3.28279,-1.79624 7.30886,-1.79624 4.3977,0 7.86632,1.85819 3.46861,1.79624 5.45067,5.3268 2.04401,3.53055 2.04401,8.60959 v 16.10427 q 0,0.99103 -0.68134,1.67236 -0.68133,0.68134 -1.67236,0.68133 z m -26.63399,0 q -1.11491,0 -1.79624,-0.6194 -0.6194,-0.68133 -0.6194,-1.7343 v -29.11157 q 0,-1.11491 0.6194,-1.73429 0.68133,-0.68135 1.79624,-0.68135 1.05297,0 1.67237,0.68135 0.68133,0.61939 0.68133,1.73429 v 29.11157 q 0,1.05297 -0.68133,1.7343 -0.6194,0.6194 -1.67237,0.6194 z"
     id="path40"
     style="font-size:61.9395px;font-family:Comfortaa;-inkscape-font-specification:Comfortaa;text-align:end;letter-spacing:-0.725858px;text-anchor:end;stroke-width:10.9736;stroke-linecap:round;paint-order:markers stroke fill" />
</svg>
